<svg xmlns="http://www.w3.org/2000/svg" xmlns:xlink="http://www.w3.org/1999/xlink" width="517px" height="516px" viewBox="99.9287 105 160.254 159.954" preserveAspectRatio="xMidYMid meet"  >
	<defs id="svgEditorDefs">
		<path id="svgEditorClosePathDefs" fill="white" style="stroke-width: 1px; stroke: none;"/>
	</defs>
	<rect id="svgEditorBackground" x="100" y="105" width="160.111328125" height="159.9539337158203" style="stroke: none; fill: none;"/>
	<circle id="e1_circle" cx="179.99998017783477" cy="185.0000020820404" style="stroke-width: 6px; fill: rgb(255, 255, 0); stroke: rgb(155, 155, 0);" r="76.4853"/>
	<circle id="e15_circle" cx="150" cy="160" style="stroke: none; stroke-width: 6px;" r="12.2962" fill="black"/>
	<path d="M141,198" stroke="black" stroke-width="1" id="e93_path" style="fill: none;"/>
	<path d="M142,191" stroke="black" stroke-width="1" id="e122_path" style="fill: none;"/>
	<circle id="e268_circle" cx="210" cy="160" style="stroke: none; stroke-width: 6px;" r="12.2962" fill="black"/>
	<path d="M116.97286456499911,156.45806807880248a74.169327,74.169327,0,0,1,35.02868489701619,-35.648661620857126" stroke="#FFFFCB" id="e29_circleArc" style="fill: none; stroke-width: 3px;"/>
	<path d="M147.1025126977986,211.33645627030705c-0.1249638140246816,12.064456506107234,57.038542008214876,12.170906276480821,56.9124755859375,0c-0.12606642227737552,-12.170906276480821,-7.966032008932956,-28.367401463315275,-28.799608558972977,-28.156707763671875c-20.146828344093933,-0.3883849547082434,-27.98790321293984,16.09225125756464,-28.112867026964523,28.156707763671875Z" id="e361_area3" fill="black" style="stroke-width: 1px; stroke: none;" transform="matrix(1.17143 0 0 1 -25.4491 1.42109e-14)"/>
	<path d="M162.53244440666984,197.2581040712161c-3.528808612089876,5.643496099879002,37.0077477936465,5.53240851730493,33.54840087890625,0c-3.4593469147402516,-5.53240851730493,-11.383560258250384,-9.140558136119012,-16.175125122070312,-9.285720825195312c-4.791564863819929,-0.14516268907630095,-13.844467144746062,3.6422247253163107,-17.373275756835938,9.285720825195312Z" id="e586_area3" fill="white" style="stroke-width: 1px; stroke: none;" transform="matrix(1.42837 0 0 1 -75.9097 -1.79724)"/>
</svg>
