<svg xmlns="http://www.w3.org/2000/svg" xmlns:xlink="http://www.w3.org/1999/xlink" width="517px" height="516px" viewBox="99.9287 105 160.254 159.954" preserveAspectRatio="xMidYMid meet"  >
	<defs id="svgEditorDefs">
		<path id="svgEditorClosePathDefs" fill="white" style="stroke-width: 1px; stroke: none;"/>
	</defs>
	<rect id="svgEditorBackground" x="100" y="105" width="160.111328125" height="159.9539337158203" style="stroke: none; fill: none;"/>
	<circle id="e1_circle" cx="180" cy="185" style="stroke-width: 6px; fill: rgb(255, 255, 0); stroke: rgb(155, 155, 0);" r="76.4853"/>
	<circle id="e15_circle" cx="150" cy="160" style="stroke: none; stroke-width: 6px;" r="12.2962" fill="black"/>
	<path d="M141,198" stroke="black" stroke-width="1" id="e93_path" style="fill: none;"/>
	<path d="M142,191" stroke="black" stroke-width="1" id="e122_path" style="fill: none;"/>
	<circle id="e268_circle" cx="210" cy="160" style="stroke: none; stroke-width: 6px;" r="12.2962" fill="black"/>
	<path d="M116.97286456499911,156.45806807880248a74.169327,74.169327,0,0,1,35.02868489701619,-35.648661620857126" stroke="#FFFFCB" id="e29_circleArc" style="fill: none; stroke-width: 3px;"/>
	<circle id="e13_circle" cx="149.7003936767578" cy="153.41026306152344" style="stroke: none; stroke-width: 6px;" r="12.2962" fill="yellow"/>
	<circle id="e25_circle" cx="210.20742797851562" cy="154.00941467285156" style="stroke: none; stroke-width: 6px;" r="12.2962" fill="yellow"/>
	<path d="M151.4494900712343,208.34106299854884c-0.1249638140246816,12.064456506107234,57.038542008214876,12.170906276480821,56.9124755859375,0c-0.12606642227737552,-12.170906276480821,-7.966032008932956,-28.367401463315275,-29.055313110351562,-28.156707763671875c-19.891123792715348,-0.3883849547082434,-27.732198661561256,16.09225125756464,-27.857162475585938,28.156707763671875Z" id="e361_area3" fill="black" style="stroke-width: 1px; stroke: none;"/>
	<path d="M162.53244440666984,192.16593550922715c-3.528808612089876,5.643496099879002,37.0077477936465,5.53240851730493,33.54840087890625,0c-3.4593469147402516,-5.53240851730493,-11.383560258250384,-9.140558136119012,-16.175125122070312,-9.285720825195312c-4.791564863819929,-0.14516268907630095,-13.844467144746062,3.6422247253163107,-17.373275756835938,9.285720825195312Z" id="e586_area3" fill="white" style="stroke-width: 1px; stroke: none;" transform="matrix(1.14301 0 0 1 -25.192 0.599079)"/>
	<path d="M140.66607999712505,168.8018705849336c3.289999999999992,1.5,6.289999999999992,3.500921345648351,9.580460672824188,3.591382018472558c1.9299999999999784,-0.3890786543516357,4.669539327175812,-1.7013820184725432,5.989539327175805,-0.3013820184725376c0.06999999999999318,5.009999999999991,-1.7199999999999989,8.780000000000001,-4.189999999999998,12.580000000000013c-1.240000000000009,1.8100000000000023,-4.050000000000011,2.259999999999991,-5.090000000000003,4.189999999999998c-2.0500000000000114,6.150000000000006,-2.1399999999999864,10.580000000000013,-1.8000000000000114,16.77000000000001c0.38999999999998647,3.1699999999999875,3.210000000000008,5.800000000000011,3.289999999999992,8.990000000000009c0.06999999999999318,2.719999999999999,-2.3100000000000023,5.069999999999993,-2.4000000000000057,7.789999999999992c-0.09999999999999433,3.3899999999999864,2.1599999999999966,6.5,2.4000000000000057,9.879999999999995c-0.03999999999999205,8.47999999999999,-0.43999999999999784,13.22999999999999,-2.0999999999999943,21.569999999999993c-0.8600000000000136,3.0000000000000284,-1.8000000000000114,6.380000000000024,-4.189999999999998,8.390000000000015c-1.5999999999999943,1.3399999999999752,-3.9199999999999875,1.5199999999999818,-5.990000000000009,1.8000000000000114c-11.239999999999995,0.49000000000000915,-15.799999999999997,0.9700000000000273,-27.260000000000005,-0.6000000000000227c-1.1200000000000045,-0.43999999999999784,-2.760000000000005,-1.1999999999999886,-2.700000000000003,-2.3999999999999773c0.18999999999999778,-2.2099999999999795,3.3400000000000034,-3.0600000000000023,5.3900000000000015,-3.8899999999999864c6.8700000000000045,-2.039999999999992,11.39,0.02999999999997272,18.570000000000007,-2.6999999999999886c1.5500000000000114,-5.340000000000003,-1.1800000000000068,-9.490000000000009,-0.30000000000001137,-14.379999999999995c0.49000000000000915,-2.3600000000000136,2.9499999999999886,-4.180000000000007,3,-6.590000000000003c0.009999999999990909,-3.710000000000008,-4.210000000000008,-6.460000000000008,-4.189999999999998,-10.180000000000007c0.21999999999999892,-3.8300000000000125,4.460000000000008,-6.4499999999999895,4.789999999999992,-10.180000000000007c0.33000000000001256,-3.819999999999993,-3.1999999999999886,-7.259999999999991,-3,-11.080000000000013c0.16999999999998755,-3.3100000000000023,3.3700000000000045,-5.969999999999999,3.5900000000000034,-9.289999999999992c0.16999999999998755,-2.5600000000000023,-1.740000000000009,-4.9199999999999875,-1.8000000000000114,-7.490000000000009c-0.02000000000001024,-4.9199999999999875,0.1999999999999887,-9.280000000000001,1.50184269129673,-11.384146055417688c4.0058539445823556,-2.4386179815274147,6.408157308703267,-4.615853944582312,6.888157308703256,-4.795853944582319" id="e669_path" style="stroke-width: 1px; stroke: none;" fill="#6363FF"/>
	<path d="M206.564731975805,171.79726385669179c3.289999999999992,1.5,6.289999999999992,3.500921345648351,9.580460672824188,3.591382018472558c1.9299999999999784,-0.3890786543516357,4.669539327175812,-1.7013820184725432,5.989539327175805,-0.3013820184725376c0.06999999999999318,5.009999999999991,-1.7199999999999989,8.780000000000001,-4.189999999999998,12.580000000000013c-1.240000000000009,1.8100000000000023,-4.050000000000011,2.259999999999991,-5.090000000000003,4.189999999999998c-2.0500000000000114,6.150000000000006,-2.1399999999999864,10.580000000000013,-1.8000000000000114,16.77000000000001c0.38999999999998647,3.1699999999999875,3.210000000000008,5.800000000000011,3.289999999999992,8.990000000000009c0.06999999999999318,2.719999999999999,-2.3100000000000023,5.069999999999993,-2.4000000000000057,7.789999999999992c-0.09999999999999433,3.3899999999999864,2.1599999999999966,6.5,2.4000000000000057,9.879999999999995c-0.03999999999999205,8.47999999999999,-0.43999999999999784,13.22999999999999,-2.0999999999999943,21.569999999999993c-0.8600000000000136,3.0000000000000284,-1.8000000000000114,6.380000000000024,-4.189999999999998,8.390000000000015c-1.5999999999999943,1.3399999999999752,-3.9199999999999875,1.5199999999999818,-5.990000000000009,1.8000000000000114c-11.239999999999995,0.49000000000000915,-15.799999999999997,0.9700000000000273,-27.260000000000005,-0.6000000000000227c-1.1200000000000045,-0.43999999999999784,-2.760000000000005,-1.1999999999999886,-2.700000000000003,-2.3999999999999773c0.18999999999999778,-2.2099999999999795,3.3400000000000034,-3.0600000000000023,5.3900000000000015,-3.8899999999999864c6.8700000000000045,-2.039999999999992,11.39,0.02999999999997272,18.570000000000007,-2.6999999999999886c1.5500000000000114,-5.340000000000003,-1.1800000000000068,-9.490000000000009,-0.30000000000001137,-14.379999999999995c0.49000000000000915,-2.3600000000000136,2.9499999999999886,-4.180000000000007,3,-6.590000000000003c0.009999999999990909,-3.710000000000008,-4.210000000000008,-6.460000000000008,-4.189999999999998,-10.180000000000007c0.21999999999999892,-3.8300000000000125,4.460000000000008,-6.4499999999999895,4.789999999999992,-10.180000000000007c0.33000000000001256,-3.819999999999993,-3.1999999999999886,-7.259999999999991,-3,-11.080000000000013c0.16999999999998755,-3.3100000000000023,3.3700000000000045,-5.969999999999999,3.5900000000000034,-9.289999999999992c0.16999999999998755,-2.5600000000000023,-1.740000000000009,-4.9199999999999875,-1.8000000000000114,-7.490000000000009c-0.02000000000001024,-4.9199999999999875,0.1999999999999887,-9.280000000000001,1.50184269129673,-11.384146055417688c4.0058539445823556,-2.4386179815274147,6.408157308703267,-4.615853944582312,6.888157308703256,-4.795853944582319" id="e1883_path" style="stroke-width: 1px; stroke: none;" transform="matrix(-1.02621 0 0 1 431.607 -3.29493)" fill="#6363FF"/>
</svg>
