<svg xmlns="http://www.w3.org/2000/svg" xmlns:xlink="http://www.w3.org/1999/xlink" width="517px" height="516px" viewBox="99.9287 105 160.254 159.954" preserveAspectRatio="xMidYMid meet" >
	<defs id="svgEditorDefs">
		<polygon id="svgEditorShapeDefs" fill="khaki" stroke="black" style="vector-effect: non-scaling-stroke; stroke-width: 1px;"/>
		<path id="svgEditorClosePathDefs" stroke="black" fill="khaki" style="stroke-width: 1px;"/>
	</defs>
	<rect id="svgEditorBackground" x="100" y="105" width="160.111328125" height="159.9539337158203" style="stroke: none; fill: none;"/>
	<circle id="e1_circle" cx="180" cy="185" style="stroke-width: 6px; fill: rgb(255, 255, 0); stroke: rgb(155, 155, 0);" r="76.4853"/>
	<path d="M141,198" stroke="black" stroke-width="1" id="e93_path" style="fill: none;"/>
	<path d="M142,191" stroke="black" stroke-width="1" id="e122_path" style="fill: none;"/>
	<path d="M116.97286456499911,156.45806807880248a74.169327,74.169327,0,0,1,35.02868489701619,-35.648661620857126" stroke="#FFFFCB" id="e29_circleArc" style="fill: none; stroke-width: 3px;"/>
	<path d="M54.89082496308686,-0.2070583456376589c-3.201999999999998,-2.8130000000000006,-8.105999999999995,-2.455,-11.119,0.5579999999999998l-34.179,34.205l-34.337,-34.362c-3.093,-3.0920000000000005,-8.108,-3.0920000000000005,-11.200999999999997,0l-0.11299999999999955,0.11299999999999955c-3.0929999999999964,3.093,-3.0929999999999964,8.107,0,11.201l34.341,34.366l-34.34,34.366c-3.0930000000000035,3.0930000000000035,-3.0930000000000035,8.108000000000004,0,11.201000000000008l0.11299999999999955,0.11299999999999955c3.0930000000000035,3.0930000000000035,8.107,3.0930000000000035,11.201,0l34.337,-34.363l34.17900000000001,34.205c3.0130000000000052,3.0130000000000052,7.917000000000002,3.3700000000000045,11.119,0.5580000000000069c3.507000000000012,-3.081000000000003,3.6370000000000005,-8.429000000000002,0.38800000000000523,-11.677999999999997l-34.37899999999999,-34.403l34.37700000000001,-34.404c3.25,-3.2489999999999988,3.1200000000000045,-8.596,-0.38800000000000523,-11.677Z" id="e179_shape" style="vector-effect: non-scaling-stroke; stroke-width: 1px; stroke: none;" transform="matrix(0.446186 0 0 0.446186 146.407 146.087)" fill="black"/>
	<path d="M187.45384737352006,-1.2396654475702533c-3.201999999999998,-2.8130000000000006,-8.105999999999995,-2.455,-11.119,0.5579999999999998l-34.179,34.205l-34.337,-34.362c-3.093,-3.0920000000000005,-8.108,-3.0920000000000005,-11.200999999999997,0l-0.11299999999999956,0.11299999999999956c-3.0929999999999964,3.093,-3.0929999999999964,8.107,0,11.201l34.341,34.366l-34.34,34.366c-3.0930000000000035,3.0930000000000035,-3.0930000000000035,8.108000000000004,0,11.201000000000008l0.11299999999999956,0.11299999999999956c3.0930000000000035,3.0930000000000035,8.107,3.0930000000000035,11.201,0l34.337,-34.363l34.17900000000001,34.205c3.0130000000000052,3.0130000000000052,7.917000000000002,3.3700000000000045,11.119,0.5580000000000069c3.507000000000012,-3.081000000000003,3.6370000000000005,-8.429000000000002,0.38800000000000534,-11.677999999999997l-34.37899999999999,-34.403l34.37700000000001,-34.404c3.25,-3.2489999999999988,3.1200000000000045,-8.596,-0.38800000000000534,-11.677Z" id="e274_shape" style="vector-effect: non-scaling-stroke; stroke-width: 1px; stroke: none;" transform="matrix(0.446186 0 0 0.446186 146.407 146.087)" fill="black"/>
	<circle id="e301_circle" cx="180.80450439453125" cy="221.22138977050778" style="stroke-width: 1px; stroke: none;" r="24.2024" fill="black" />
	<path d="M164.32984627696956,163.35359248134546c-0.2868658450000794,-6.876172996826654,33.24699329951079,-5.142495569117784,32.350341796875,1.497711181640625c-0.8966515026357911,6.640206750758466,-10.389828473664522,13.99957806888986,-15.875640869140625,12.060987482932433c-5.485812395476103,2.0962032470058887,-16.187835082734296,-6.682525667746404,-16.474700927734375,-13.558698664573058Z" id="e559_area3" fill="white" style="stroke-width: 1px; stroke: none;" transform="matrix(1 0 0 -0.742393 0 332.918)"/>
</svg>
