<svg xmlns="http://www.w3.org/2000/svg" xmlns:xlink="http://www.w3.org/1999/xlink" width="517px" height="516px" viewBox="100 105 160.111 159.954" preserveAspectRatio="xMidYMid meet" >
	<defs id="svgEditorDefs">
		<path id="svgEditorClosePathDefs" stroke="black" fill="khaki" style="stroke-width: 1px;"/>
	</defs>
	<rect id="svgEditorBackground" x="100" y="105" width="160.111328125" height="159.9539337158203" style="stroke: none; fill: none;"/>
	<circle id="e1_circle" cx="180" cy="185" style="stroke-width: 6px; fill: rgb(255, 0, 0); stroke: rgb(155, 0, 0);" r="76.4853"/>
	<path d="M141,198" stroke="black" stroke-width="1" id="e93_path" style="fill: none;"/>
	<path d="M142,191" stroke="black" stroke-width="1" id="e122_path" style="fill: none;"/>
	<path d="M149,206q30,30,60,0" stroke="black" id="e169_arc2" style="fill: none; stroke-width: 10px;" transform="matrix(1 0 0 -0.992605 0.599079 416.435)"/>
	<path d="M116.97286456499911,156.45806807880248a74.169327,74.169327,0,0,1,35.02868489701619,-35.648661620857126" id="e29_circleArc" style="fill: none; stroke-width: 3px; stroke: rgb(255, 120, 120);"/>
	<path d="M143.66146850585938,149.0322723388672c0.6768557322138236,-4.79844905646371,30.74530472096768,7.57077243966819,27.5576171875,11.38250732421875c-3.187687533467681,3.8117348845505603,-5.647181917378617,5.3963420467926255,-8.387100219726562,6.1784979494072445c-2.473171351935491,0.5198927108199882,-8.047439990323824,0.5727862605533574,-12.047164058159439,-1.4990302169739778c-3.19948321659831,-1.5472900939381589,-5.707090379467871,-4.804822264424672,-6.524277592231186,-7.075784260753579c-0.8171872127633151,-2.270961996328907,-1.275931049596636,-4.187741739434728,-0.5990753173828125,-8.986190795898438Z" id="e276_area3" fill="white" style="stroke-width: 1px; stroke: none;" transform="matrix(1.20239 0 0 1.22295 -36.1803 -33.7026)"/>
	<path d="M186.51605239029925,148.84355235743635c0.6768557322138239,-4.79844905646371,30.74530472096768,7.570772439668191,27.5576171875,11.38250732421875c-3.187687533467681,3.8117348845505603,-5.647181917378617,5.3963420467926255,-8.387100219726562,6.1784979494072445c-2.473171351935491,0.5198927108199882,-8.047439990323824,0.5727862605533575,-12.047164058159439,-1.4990302169739778c-3.1994832165983103,-1.5472900939381589,-5.707090379467871,-4.804822264424672,-6.524277592231186,-7.075784260753579c-0.8171872127633152,-2.270961996328907,-1.275931049596636,-4.187741739434728,-0.5990753173828127,-8.986190795898438Z" id="e506_area3" fill="white" style="stroke-width: 1px; stroke: none;" transform="matrix(-1.15022 0 0 1.22295 435.528 -32.2049)"/>
	<path d="M150.1445408543671,154.96684686043923c0.6768557322138239,-4.79844905646371,30.74530472096768,7.570772439668191,27.5576171875,11.38250732421875c-3.187687533467681,3.8117348845505603,-5.647181917378617,5.3963420467926255,-8.387100219726562,6.1784979494072445c-2.473171351935491,0.5198927108199882,-8.047439990323824,0.5727862605533575,-12.047164058159439,-1.4990302169739778c-3.1994832165983103,-1.5472900939381589,-5.707090379467871,-4.804822264424672,-6.524277592231186,-7.075784260753579c-0.8171872127633152,-2.270961996328907,-1.275931049596636,-4.187741739434728,-0.5990753173828127,-8.986190795898438Z" id="e573_area3" fill="black" style="stroke-width: 1px; stroke: none;" transform="matrix(0.872412 0 0 0.88733 11.0765 10.7472)"/>
	<path d="M191.85521783621365,153.55346797840775c0.6768557322138242,-4.79844905646371,30.74530472096768,7.5707724396681915,27.5576171875,11.38250732421875c-3.187687533467681,3.8117348845505603,-5.647181917378617,5.3963420467926255,-8.387100219726562,6.1784979494072445c-2.473171351935491,0.5198927108199882,-8.047439990323824,0.5727862605533576,-12.047164058159439,-1.4990302169739778c-3.1994832165983103,-1.5472900939381589,-5.707090379467871,-4.804822264424672,-6.524277592231186,-7.075784260753579c-0.8171872127633153,-2.270961996328907,-1.275931049596636,-4.187741739434728,-0.5990753173828128,-8.986190795898438Z" id="e625_area3" fill="black" style="stroke-width: 1px; stroke: none;" transform="matrix(-0.874914 0 0 0.930236 384.415 6.10781)"/>
	<path d="M170.02092912938264,162.81108799052151a33.090488,33.090488,0,0,0,-33.24886407745018,-15.2765051166663" stroke="black" id="e668_circleArc" style="fill: none; stroke-width: 2px;"/>
	<path d="M193.38499577840167,145.43780766176377a33.090488,33.090488,0,0,0,-33.24886407745018,-15.2765051166663" stroke="black" id="e739_circleArc" style="fill: none; stroke-width: 2px;" transform="matrix(-0.990297 0 0 1 379.813 17.6728)"/>
</svg>
