
<svg xmlns="http://www.w3.org/2000/svg" xmlns:xlink="http://www.w3.org/1999/xlink" width="517px" height="516px" viewBox="99.9287 105 160.254 159.954" preserveAspectRatio="xMidYMid meet"  ><defs id="svgEditorDefs"><path id="svgEditorClosePathDefs" stroke="black" fill="khaki" style="stroke-width: 1px;"/></defs>
	<rect id="svgEditorBackground" x="100" y="105" width="160.111328125" height="159.9539337158203" style="stroke: none; fill: none;"/>
	<circle id="e1_circle" cx="180" cy="185" style="stroke-width: 6px; fill: rgb(255, 255, 0); stroke: rgb(155, 155, 0);" r="76.4853"/>
	<circle id="e15_circle" cx="150" cy="160" style="stroke: none; stroke-width: 6px;" r="12.2962" fill="black"/>
	<path d="M141,198" stroke="black" stroke-width="1" id="e93_path" style="fill: none;"/>
	<path d="M142,191" stroke="black" stroke-width="1" id="e122_path" style="fill: none;"/>
	
	<circle id="e268_circle" cx="210" cy="160" style="stroke: none; stroke-width: 6px;" r="12.2962" fill="black"/>
	<path d="M116.97286456499911,156.45806807880248a74.169327,74.169327,0,0,1,35.02868489701619,-35.648661620857126" stroke="#FFFFCB" id="e29_circleArc" style="fill: none; stroke-width: 3px;"/>
<circle id="e12_circle" cx="149.9999542236328" cy="165.39169311523438" style="stroke: none; stroke-width: 6px;" r="12.2962" fill="yellow"/><circle id="e24_circle" cx="210.20738220214847" cy="165.3916015625" style="stroke: none; stroke-width: 6px;" r="12.2962" fill="yellow"/><path d="M149.35272216796875,180.18435668945312c-6.095393271758184,0.2041460554176524,-7.599999999999994,4.800000000000011,-9.289999999999992,8.689999999999998c-1.6899999999999977,8.159999999999997,-1.6399999999999864,13.139999999999986,0,21.27000000000001c1.509999999999991,3.7299999999999898,4.689999999999998,7.099999999999994,8.390000000000015,8.689999999999998c33.889999999999986,1.9499999999999886,38.94999999999999,1.8600000000000136,72.79000000000002,0.5999999999999943c3.6200000000000045,-1.25,7.349999999999994,-3.719999999999999,8.990000000000009,-7.189999999999998c1.6500000000000057,-9.139999999999986,1.3799999999999955,-14.110000000000014,-0.30000000000001137,-23.060000000000002c-1.460000000000008,-3.8300000000000125,-2.2432247097692652,-9.097696635879089,-7.191382018472581,-8.690921345648377c-34.109999999999985,-3.2472359630548624,-41.93631461740654,-3.2744719261097828,-73.98861798152743,0.0009213456483792015" id="e314_path" style="stroke-width: 1px; stroke: none;" transform="matrix(1 0 0 0.944172 -4.19355 13.0677)" fill="black"/><path d="M139.76745792281963,194.26271459276435c-0.4802123407985448,-12.891309992325489,29.098070135203216,-10.865890752392232,39.53919219970703,-10.783416748046875c10.441122064503816,0.08247400434535734,42.551798752024155,-1.4960127438392306,40.73735046386719,12.281112670898438c0.8814056564254429,11.680350124506958,-82.80232429887906,10.37748711652614,-80.27654266357422,-1.4976959228515625Z" id="e564_area3" fill="white" style="stroke-width: 1px; stroke: none;" transform="matrix(1.03669 0 0 0.832665 -5.49054 32.3662)"/><path d="M141.60709845027148,219.92145629224683c-2.2138414572579563,-16.848402574944004,27.364441018743804,-14.822983335010747,37.80556308324762,-14.74050933066539c10.441122064503816,0.08247400434535734,42.551798752024155,-1.4960127438392306,40.73735046386719,14.079791117543209c0.8814056564254429,9.881671677862187,-79.33506650271428,7.859338505517286,-78.54291354711481,0.6607182131221805Z" id="e669_area3" fill="white" style="stroke-width: 1px; stroke: none;" transform="matrix(1.03669 0 0 0.683622 -6.08962 63.5917)"/></svg>
