
<svg xmlns="http://www.w3.org/2000/svg" xmlns:xlink="http://www.w3.org/1999/xlink" width="423px" height="516px" viewBox="100.827 105.88 130 158.493" preserveAspectRatio="xMidYMid meet"  ><defs id="svgEditorDefs"><polygon id="svgEditorShapeDefs" fill="khaki" stroke="black" style="vector-effect: non-scaling-stroke; stroke-width: 1px;"/><path id="svgEditorClosePathDefs" fill="yellow" style="stroke-width: 1px; stroke: none;"/></defs>
	<rect id="svgEditorBackground" x="100" y="105" width="160.111328125" height="159.9539337158203" style="stroke: none; fill: none;"/>
	
	
	<g id="e1608_group" transform="matrix(1.46125 0 0 -1.37736 -85.7841 446.088)"><path d="M141,198" stroke="black" stroke-width="1" id="e93_path" style="fill: none;"/><path d="M142,191" stroke="black" stroke-width="1" id="e122_path" style="fill: none;"/><path d="M167.32507655683082,242.7880832800704c-2.9681824480787498,0.13189496318781835,-16.908883474814104,1.2933555667191285,-21.267291522651135,0.2995393160130675c-4.957486679863166,-1.2933555667190149,-11.04651366296909,-4.5570553110354695,-13.778811908393294,-11.981570040242076c-3.0318375614372997,-8.323132677245695,-3.146093180004897,-34.91255659163838,-1.7972266093622125,-41.93550838513315c2.2474845186818584,-5.824794529442499,6.563075491363264,-10.973975240623645,14.07834525233352,-12.880181358994633c6.916191128944092,-4.302520646475472,32.06548868836879,-4.825745065486672,38.3410312781173,-1.1981692081979816c8.372317801839955,2.1298792772233526,12.994154768283494,6.4640772922736005,15.87558049119815,14.078350567192615c3.1809650389276953,7.015194642892936,2.0719956885474176,38.185714513524715,-2.9953925029169,43.732745624213635c-2.671073663359806,6.745188374741218,-4.690744504386885,9.043162384664328,-14.078344595119745,10.483872117174656c-7.889903510667551,-0.3565261635679917,-12.008786067153068,-0.7309735952138681,-14.377889883205683,-0.599078632026135Z" id="e224_area3" fill="yellow" style="stroke-width: 1px; stroke: none;"/><path d="M146.95640163921684,143.94011848249684c-0.6363667994412765,-8.902922999036122,4.625922568856652,-9.421130446167666,7.4884796142578125,-8.986183166503906c2.8625570454011893,0.43494727966375996,7.096590771952435,5.7346427174935295,8.087570190429688,8.686637878417969c0.9909794184772522,2.95199516092444,3.860337081473574,16.47687071649878,-7.488493530044849,37.44240592927969c-7.1552801873355065,4.191333516049241,-7.684569548269707,3.7608523392489417,-19.957029914486384,0.8986239201120442c12.964171549390386,-24.728598488090597,12.408445707430161,-33.631651302465656,11.869473639843733,-38.04148456130579Z" id="e583_area3" fill="yellow" style="stroke-width: 1px; stroke: none;" transform="matrix(1.20295 0 0 1 -27.8192 0)"/><path d="M156.83585837717808,179.8836547337221c1.0244886887636255,-1.7433502493939272,3.41181823348424,-3.850299798287267,8.3890380859375,-4.793731689453125c4.3780032626862635,-3.340298250233616,30.667020882522138,-3.0884121155860385,34.75456237792969,0c4.0875414954075495,3.0884121155860385,4.683767779848097,3.368930427015755,4.4941253662109375,5.0933380126953125c-0.18964241363715928,1.7244075856795291,0.8461414301676768,3.014372662626954,-3.595306396484375,6.5913848876953125c-4.441447826652052,3.5770122250683585,-33.58600632170155,2.1180178718338425,-38.86580842272704,0.37473008431501853c-5.505904546807869,0.02572138253350431,-6.201099699630305,-5.522371045858591,-5.176611010866708,-7.2657212952525185Z" id="e1182_area3" style="stroke: none; stroke-width: 1px; fill: rgb(250, 250, 0);" transform="matrix(1.08591 0.0334967 -0.0305711 1.18984 -7.05684 -37.0106)"/><path d="M161.25343905364159,194.17096864454146c1.0244886887636255,-1.7433502493939272,3.41181823348424,-3.850299798287267,8.3890380859375,-4.793731689453125c4.3780032626862635,-3.340298250233616,30.667020882522138,-3.0884121155860385,34.75456237792969,0c4.0875414954075495,3.0884121155860385,4.683767779848097,3.368930427015755,4.4941253662109375,5.0933380126953125c-0.18964241363715928,1.7244075856795291,0.8461414301676768,3.014372662626954,-3.595306396484375,6.5913848876953125c-4.441447826652052,3.5770122250683585,-33.58600632170155,2.1180178718338425,-39.43135061546167,-0.11296337305117277c-4.728430461861734,-1.7588138263658948,-5.63555750689568,-5.0346775884924,-4.6110688181320825,-6.778027837886327Z" id="e1288_area3" style="stroke: none; stroke-width: 1px; fill: rgb(250, 250, 0);" transform="matrix(1.08591 0.0334967 -0.0305711 1.18984 -7.05684 -37.0106)"/><path d="M158.22039319494547,208.41622909182965c1.0244886887636255,-1.7433502493939272,3.41181823348424,-3.8502997982872387,8.3890380859375,-4.793731689453125c4.3780032626862635,-3.340298250233616,30.667020882522138,-3.0884121155860385,34.75456237792969,0c4.0875414954075495,3.088412115586067,4.683767779848097,3.3689304270157834,4.4941253662109375,5.0933380126953125c-0.18964241363715928,1.7244075856795291,0.8461414301676768,3.0143726626269256,-3.595306396484375,6.5913848876953125c-4.441447826652052,3.5770122250683585,-33.58600632170155,2.1180178718338425,-39.69995405381769,0.1464039656957823c-3.9155368003812043,-2.2853097136888607,-5.3669540685396555,-5.294044927239355,-4.342465379776058,-7.037395176633282Z" id="e1314_area3" style="stroke: none; stroke-width: 1px; fill: rgb(250, 250, 0);" transform="matrix(1.08591 0.0334967 -0.0305711 1.18984 -7.05684 -37.0106)"/><path d="M150.18956847835648,221.54316067145314c1.0244886887636255,-1.7433502493939272,3.41181823348424,-3.850299798287253,8.3890380859375,-4.793731689453125c4.3780032626862635,-3.340298250233616,30.667020882522138,-3.0884121155860385,34.75456237792969,0c4.0875414954075495,3.0884121155860527,4.683767779848097,3.368930427015769,4.4941253662109375,5.0933380126953125c-0.1896424136371594,1.7244075856795291,0.8461414301676776,3.01437266262694,-3.595306396484375,6.5913848876953125c-4.441447826652052,3.5770122250683585,-33.58600632170155,2.1180178718338425,-38.349853515625,-0.8988265991210942c-4.763847193923425,-3.016844470954922,-6.717054606732347,-4.248814362422479,-5.69256591796875,-5.992164611816406Z" id="e1327_area3" style="stroke: none; stroke-width: 1px; fill: rgb(250, 250, 0);" transform="matrix(0.87559 0.0308821 -0.0246501 1.09697 34.191 -15.7478)"/><path d="M166.4233264280169,179.28443977270234a8.46917441287237,8.46917441287237,0,0,1,0.29960829488348395,9.887073731154544" id="e1528_circleArc" style="fill: none; stroke-width: 1px; stroke: rgb(240, 240, 0);"/><path d="M170.01862596661854,196.66172087594364a8.46917441287237,8.46917441287237,0,0,1,0.299608294883484,9.887073731154544" id="e1558_circleArc" style="fill: none; stroke-width: 1px; stroke: rgb(240, 240, 0);"/><path d="M167.02254301778382,213.43978538941803a8.46917441287237,8.46917441287237,0,0,1,0.29960829488348406,9.887073731154544" id="e1571_circleArc" style="fill: none; stroke-width: 1px; stroke: rgb(240, 240, 0);"/><path d="M170.31823426150197,229.31902501824197a8.46917441287237,8.46917441287237,0,0,1,0.2996082948834841,9.887073731154544" id="e1584_circleArc" style="fill: none; stroke-width: 1px; stroke: rgb(240, 240, 0);"/></g>
	
	
	
	
</svg>
