<svg xmlns="http://www.w3.org/2000/svg" xmlns:xlink="http://www.w3.org/1999/xlink" width="517px" height="516px" viewBox="99.9287 105 160.254 159.954" preserveAspectRatio="xMidYMid meet"  >
	<defs id="svgEditorDefs">
		<path id="svgEditorClosePathDefs" fill="white" style="stroke-width: 1px; stroke: none;"/>
	</defs>
	<rect id="svgEditorBackground" x="100" y="105" width="160.111328125" height="159.9539337158203" style="stroke: none; fill: none;"/>
	<circle id="e1_circle" cx="179.99998017783477" cy="185.0000020820404" style="stroke-width: 6px; fill: rgb(255, 255, 0); stroke: rgb(155, 155, 0);" r="76.4853"/>
	<circle id="e15_circle" cx="150" cy="160" style="stroke: none; stroke-width: 6px;" r="12.2962" fill="black"/>
	<path d="M141,198" stroke="black" stroke-width="1" id="e93_path" style="fill: none;"/>
	<path d="M142,191" stroke="black" stroke-width="1" id="e122_path" style="fill: none;"/>
	<circle id="e268_circle" cx="210" cy="160" style="stroke: none; stroke-width: 6px;" r="12.2962" fill="black"/>
	<path d="M116.97286456499911,156.45806807880248a74.169327,74.169327,0,0,1,35.02868489701619,-35.648661620857126" stroke="#FFFFCB" id="e29_circleArc" style="fill: none; stroke-width: 3px;"/>
	<path d="M147.1025126977986,211.33645627030705c-0.1249638140246816,12.064456506107234,57.038542008214876,12.170906276480821,56.9124755859375,0c-0.12606642227737552,-12.170906276480821,-7.966032008932956,-28.367401463315275,-28.799608558972977,-28.156707763671875c-20.146828344093933,-0.3883849547082434,-27.98790321293984,16.09225125756464,-28.112867026964523,28.156707763671875Z" id="e361_area3" fill="black" style="stroke-width: 1px; stroke: none;" transform="matrix(1.17143 0 0 -0.939553 -26.0482 395.593)"/>
	<path d="M156.24225600768474,197.25814194723824c-5.52680873462171,4.112827439447528,50.30682001614906,4.06557212898656,44.9310302734375,0c-0.5950046399840403,-3.476730522892524,-4.738087292929777,-5.321687445836034,-8.24335302805926,-6.259627845625829c-3.5052657351294556,-0.9379403997896247,-10.445784993353243,-0.7990735156940332,-13.99450567519628,-0.6246672249992855c-3.7763771153062464,-0.4144353153994018,-9.999630698755936,-0.09373576898423153,-13.70696551549446,0.9139788017964747c-3.252021949812047,1.3021353738276673,-7.557213122403681,1.857488829381083,-8.9862060546875,5.97031626882864Z" id="e108_area3" fill="white" style="stroke: none; stroke-width: 1px;" transform="matrix(1.35153 0 0 1.01739 -62.2189 -2.65035)"/>
	<path d="M169.06536466570643,209.693673464938c9.140000000000015,0,11.360664912217857,-0.3297505614302453,24.25999999999999,0c0.4370016723930235,15.419999999999987,0.15412305701610765,20.180000000000007,0.30000000000001137,35.349999999999994c-0.24158454660022244,10.121933669180663,-4.068071614413924,14.904606912991056,-13.47999999999999,14.97999999999999c-9.536321462470767,0.0026429249415400595,-14.539914617203294,-6.4532187203381,-14.379999999999995,-15.580000000000013c-0.122299085955774,-14.849999999999994,0,-20.370000000000005,0,-34.75Z" id="e567_path" style="stroke-width: 1px; stroke: none;" fill="#FF3333" transform="matrix(1.23563 0 0 0.813888 -42.7768 38.6141)"/>
</svg>
