
<svg xmlns="http://www.w3.org/2000/svg" xmlns:xlink="http://www.w3.org/1999/xlink" width="517px" height="516px" viewBox="99.9287 105 160.254 159.954" preserveAspectRatio="xMidYMid meet"  ><defs id="svgEditorDefs"><path id="svgEditorClosePathDefs" style="stroke-width: 1px; fill: rgb(117, 156, 38); stroke: none;"/></defs>
	<rect id="svgEditorBackground" x="100" y="105" width="160.111328125" height="159.9539337158203" style="stroke: none; fill: none;"/><path d="M251.79515758614414,208.9401407420412c-2.969999999999999,3.1899999999999977,-5.610000000000014,4.490000000000009,-8.090000000000003,8.689999999999998c7.2781572640522825,2.5746068398693183,10.775853844117592,6.001382051960832,15.28000000000003,10.780000000000001c-0.45276410392159505,-9.069539316013078,-2.6523034199346966,-12.85723589607835,-7.189999999999998,-19.169999999999987" id="e2024_path" style="fill: rgb(117, 156, 38); stroke-width: 1px; stroke: none;" transform="matrix(1.0845 0 0 1.09469 -20.9345 -24.9748)"/><g id="e1651_group" transform="matrix(1 0 0 1 -6.8894 -0.599079)"><path d="M140.9656128901221,189.47008720140778c3.067287756931904,-5.092168372222119,30.287619231752558,-5.509187500221884,33.849999999999994,0c5.180000000000007,17.55000000000001,5.180000000000007,29.180000000000007,-0.3773809615876189,50.35106250244044c-10.882619038412372,0.24218749667210204,-22.512619038412396,-0.08700000354969006,-40.5654763469897,-1.6459375011094153c1.7228573085773178,-19.715125001331046,1.9006889363552375,-33.27512500133105,7.092857308577322,-49.00512500133104Z" id="e1651_path" style="fill: rgb(133, 176, 43); stroke-width: 1px; stroke: none;" transform="matrix(0.860802 0 0 0.996095 25.994 24.7492)"/><path d="M164.92876075716055,239.79269220587912" stroke="black" stroke-width="0.2995393160130647" id="e1652_path" style="fill: none;" transform="matrix(1.0845 0 0 1.09469 -21.5166 -25.0316)"/><path d="M152.26217963805672,245.7834826122956c0.00033463932103927624,-0.03744166560130681,-0.8244925239125394,4.4253642066270515,0,-0.2995452880859375c-11.456619432623086,-1.1304377025562076,-22.386762272344043,12.523760030192932,-18.8709716796875,16.774200439453125c7.110262384813296,0.3564293010903726,11.871522573258233,1.2784120977071325,24.267482149405225,0.5990753173828127c-5.885544263615088,-8.46735899666399,-5.3968451090387655,-17.036288803148693,-5.396510469717725,-17.07373046875Z" id="e1652_area3" fill="#648521" style="stroke-width: 1px; stroke: none;" transform="matrix(0.842749 0 0 1.09469 16.435 -25.0316)"/><path d="M234.27785915068796,246.9816398763478c0.0003346393210392763,-0.037441665601306816,-0.8244925239125394,4.4253642066270515,0,-0.2995452880859375c-11.456619432623086,-1.1304377025562076,-22.386762272344043,12.523760030192932,-18.8709716796875,16.774200439453125c7.110262384813296,0.3564293010903727,11.871522573258233,1.2784120977071325,24.267482149405225,0.5990753173828128c-5.885544263615088,-8.46735899666399,-5.3968451090387655,-17.036288803148693,-5.396510469717725,-17.07373046875Z" id="e1867_area3" fill="#648521" style="stroke-width: 1px; stroke: none;" transform="matrix(0.842749 0 0 1.09469 16.435 -25.0316)"/></g>
	
	
	<path d="M141,198" stroke="black" stroke-width="1" id="e93_path" style="fill: none;" transform="matrix(1.0845 0 0 1.09469 -20.9345 -24.9748)"/>
	<path d="M142,191" stroke="black" stroke-width="1" id="e122_path" style="fill: none;" transform="matrix(1.0845 0 0 1.09469 -20.9345 -24.9748)"/>
	
	
	
<path d="M148.61829843930772,190.93311379951038c7.336068398693527,7.898022216339712,99.57517860555473,9.250460683986915,104.54000000000002,0.30000000000001137c0.5988085366009557,-17.00737094379096,-16.502573515359813,-42.9794042683005,-51.21783162777788,-42.53046068398692c-33.64249400849647,-2.266640164378913,-53.50235896078391,24.25059573169949,-53.62216837222212,42.230460683986934Z" id="e373_path" style="stroke-width: 2px; fill: rgb(192, 255, 63); stroke: none;" transform="matrix(1.07904 0 0 -1.05159 -24.388 406.037)"/><path d="M144.26055508159965,209.83875694703517c-7.025393160130648,-20.35631452810452,-1.3428991516341853,-29.904932476143728,-10.47999999999999,-46.72999999999999c-4.505258112418062,-8.28585384411761,18.90078632026129,-13.961247004248236,20.370000000000005,-6.890000000000015c2.7792136797387172,24.400325636274374,1.6442812035949999,33.578482900326605,12.580000000000013,46.129999999999995c5.242494008496465,4.13276410392163,-12.11692829949726,7.053141396664273,-22.47,7.490000000000009Z" id="e2353_path" style="fill: rgb(117, 156, 38); stroke-width: 1px; stroke: none;" transform="matrix(1.53248 0 0 1.28913 -85.2654 -63.4406)"/><line id="e3340_line" x1="192.786" y1="211.936" x2="214.952" y2="252.373" style="stroke-width: 2px; fill: none; stroke: rgb(136, 181, 45);" transform="matrix(-0.924059 0 0 0.946376 403.491 10.2763)"/><line id="e3327_line" x1="165.827" y1="210.438" x2="187.993" y2="250.876" style="stroke-width: 2px; fill: none; stroke: rgb(136, 181, 45);" transform="matrix(1.0845 0 0 1.09469 -20.9345 -24.9748)"/><path d="M165.0323046475074,199.2618734024475c10.711618073312167,11.758531415428791,82.69743023246139,12.338868043258174,87.66225162690668,3.3884073592712696c0.5988085366009557,-17.00737094379096,-16.502573515359813,-42.9794042683005,-51.21783162777788,-42.53046068398692c-33.64249400849647,-2.266640164378913,-46.75125961154657,14.470639094007225,-40.96385709240215,31.93576948641612Z" id="e225_path" style="stroke-width: 2px; fill: rgb(107, 142, 35); stroke: none;" transform="matrix(1.15483 0 0 1.27406 -38.9196 -53.1346)"/><g id="e1626_group" transform="matrix(1.0845 0 0 1.09469 -20.9345 -24.9748)"><path d="M140.9656128901221,189.47008720140778c3.067287756931904,-5.092168372222119,30.287619231752558,-5.509187500221884,33.849999999999994,0c5.180000000000007,17.55000000000001,4.832022783968426,31.886421249997056,-0.3773809615876189,50.35106250244044c-10.882619038412372,0.24218749667210204,-22.512619038412396,-0.08700000354969006,-40.5654763469897,-1.6459375011094153c1.7228573085773178,-19.715125001331046,1.9006889363552375,-33.27512500133105,7.092857308577322,-49.00512500133104Z" id="e892_path" style="fill: rgb(117, 156, 38); stroke-width: 1px; stroke: none;" transform="matrix(0.793732 0 0 0.909935 43.8088 45.4748)"/><path d="M164.92876075716055,239.79269220587912" stroke="black" stroke-width="0.2995393160130647" id="e1195_path" style="fill: none;"/><path d="M152.26217963805672,245.7834826122956c0.00033463932103927624,-0.03744166560130681,-0.8244925239125394,4.4253642066270515,0,-0.2995452880859375c-11.456619432623086,-1.1304377025562076,-22.386762272344043,12.523760030192932,-18.8709716796875,16.774200439453125c7.110262384813296,0.3564293010903726,11.871522573258233,1.2784120977071325,24.267482149405225,0.5990753173828127c-5.885544263615088,-8.46735899666399,-5.3968451090387655,-17.036288803148693,-5.396510469717725,-17.07373046875Z" id="e1301_area3" fill="#4D6619" style="stroke-width: 1px; stroke: none;" transform="matrix(0.777086 0 0 1 34.9946 0)"/></g><g id="e1770_group" transform="matrix(1.0845 0 0 1.09469 40.787 -24.6469)"><path d="M164.92876075716055,239.79269220587912" stroke="black" stroke-width="0.2995393160130647" id="e1771_path" style="fill: none;"/></g><polyline id="e2923_polyline" style="fill: none; stroke-width: 2px; stroke: rgb(79, 105, 26);" points="177.21 213.433 182.302 194.562 203.12 184.378 224.837 195.161 232.325 216.129" transform="matrix(1.0845 0 0 1.09469 -20.9345 -24.9748)"/><g id="e1771_group" transform="matrix(1 0 0 1 63.8019 0.898618)"><path d="M164.92876075716055,239.79269220587912" stroke="black" stroke-width="0.2995393160130647" id="e1773_path" style="fill: none;" transform="matrix(1.0845 0 0 1.09469 -15.5433 -24.8898)"/><path d="M140.9656128901221,189.47008720140778c3.067287756931904,-5.092168372222119,30.287619231752558,-5.509187500221884,36.09995585955525,1.6608229201276004c2.9300441404447497,15.889177079872411,2.9300441404447497,27.519177079872406,-2.627336821142876,48.69023958231287c-10.882619038412372,0.24218749667207362,-22.512619038412396,-0.08700000354971849,-40.5654763469897,-1.6459375011094437c1.7228573085773178,-19.715125001331046,1.9006889363552375,-33.27512500133105,7.092857308577322,-49.00512500133104Z" id="e1772_path" style="fill: rgb(117, 156, 38); stroke-width: 1px; stroke: none;" transform="matrix(0.85627 0 0 1.01385 35.6727 21.1169)"/><path d="M155.8164917424917,246.0571124060288c0.00033463932103927624,-0.03744166560130681,-0.8244925239125394,4.4253642066270515,0,-0.2995452880859375c-11.456619432623086,-1.1304377025562076,-22.386762272344043,12.523760030192932,-18.8709716796875,16.774200439453125c7.110262384813296,0.3564293010903726,11.871522573258233,1.2784120977071325,24.267482149405225,0.5990753173828127c-5.885544263615088,-8.46735899666399,-5.3968451090387655,-17.036288803148693,-5.396510469717725,-17.07373046875Z" id="e1773_area3" fill="#4D6619" style="stroke-width: 1px; stroke: none;" transform="matrix(0.842749 0 0 1.09469 22.4083 -24.8898)"/></g><path d="M157.12410959747297,134.6622961126226c-6.2931488161123355,9.228077508201608,-4.793987673127617,16.088074392141863,0.435800840078997,22.029982135440463c6.704735716691147,6.270477662674466,16.345783238404124,1.2382898869878716,21.889112244757712,-2.260388821601822c4.919841188310329,-4.0977573406158285,4.8956272488100865,-23.730837473356473,0,-27.857154846191406c-4.89562724881003,-4.126317372834933,-13.329983723869987,-3.2372911879402864,-22.32491308483671,8.087561532352737Z" id="e2707_area3" style="stroke-width: 1px; fill: rgb(117, 156, 38); stroke: none;" transform="matrix(1.73081 0 0 1.21217 -164.402 -41.5318)"/><polyline id="e3045_polyline" style="fill: none; stroke-width: 2px; stroke: rgb(79, 105, 26);" points="178.108 192.465 200.022 190.044" transform="matrix(0.883784 -0.634447 0.628542 0.892087 -54.7503 130.755)"/><line id="e3135_line" x1="182.003" y1="194.562" x2="159.827" y2="171.799" style="stroke-width: 2px; fill: none; stroke: rgb(79, 105, 26);" transform="matrix(1.0845 0 0 1.09469 -20.9345 -24.9748)"/><line id="e3202_line" x1="202.97" y1="184.378" x2="203.27" y2="161.015" style="stroke-width: 2px; fill: none; stroke: rgb(79, 105, 26);" transform="matrix(1.0845 0 0 1.09469 -20.9345 -24.9748)"/><circle id="e3864_circle" cx="135.574" cy="133.157" style="stroke-width: 1px; stroke: none;" r="4.73613" fill="black" transform="matrix(1.0845 0 0 1.09469 -20.9345 -24.9748)"/><path d="M116.10385749317776,155.0230646579065a15.722367148564842,15.722367148564842,0,0,0,9.585258469626154,-7.788022506571252" stroke="black" id="e3881_circleArc" style="fill: none; stroke-width: 2px;" transform="matrix(1.0845 0 0 1.09469 -20.9345 -24.9748)"/></svg>
